# xmcd
#
# Track frame offsets:
#	150
#	19972
#	38204
#	62511
#	83351
#	103412
#	125989
#	142315
#	159531
#	178197
#	194210
#
# Disc length: 2991 seconds
#
# Revision: 0
# Processed by: cddbd v1.5.2PL0 Copyright (c) Steve Scherf et al.
# Submitted via: EasyCDDAExtractor 10.0.3.1
#
DISCID=a80bad0b
DTITLE=KARMACOMA - KarmaComa
DYEAR=1999
DGENRE=
TTITLE0=Nie Zobaczy Nikt
TTITLE1=Do Mnie, Do Ciebie
TTITLE2=Zrozumieć Grę
TTITLE3=Jak Pozostać Sobą?
TTITLE4=Zostanę Przy tobie
TTITLE5=Jeden Dzień, Jedna Noc
TTITLE6=Audiofil
TTITLE7=Czy Nikt Nie Kocha?
TTITLE8=Ktoś Kogo Znasz
TTITLE9=Za Nie Swoje Grzechy
TTITLE10=Połączenie
EXTD=
EXTT0=
EXTT1=
EXTT2=
EXTT3=
EXTT4=
EXTT5=
EXTT6=
EXTT7=
EXTT8=
EXTT9=
EXTT10=
PLAYORDER=
